<?xml version="1.0" standalone="no"?>
<!DOCTYPE svg PUBLIC "-//W3C//DTD SVG 20010904//EN"
 "http://www.w3.org/TR/2001/REC-SVG-20010904/DTD/svg10.dtd">
<svg version="1.0" xmlns="http://www.w3.org/2000/svg"
 width="400.000000pt" height="400.000000pt" viewBox="0 0 400.000000 400.000000"
 preserveAspectRatio="xMidYMid meet">
<metadata>
Created by potrace 1.11, written by Peter Selinger 2001-2013
</metadata>
<g transform="translate(0.000000,400.000000) scale(0.100000,-0.100000)"
fill="#000000" stroke="none">
<path d="M1967 3784 c-14 -38 -125 -336 -245 -662 -121 -326 -222 -595 -225
-598 -2 -3 -301 -16 -663 -30 -363 -14 -681 -28 -707 -32 l-49 -7 254 -200
c917 -723 860 -676 853 -704 -4 -14 -90 -320 -191 -680 -101 -360 -182 -656
-180 -658 2 -3 268 171 590 386 322 215 588 391 591 391 3 0 269 -176 591
-391 322 -215 588 -389 590 -386 2 2 -79 298 -180 658 -101 360 -187 666 -191
680 -6 25 17 45 397 344 678 536 708 559 703 563 -2 3 -318 17 -702 33 -384
16 -701 29 -705 29 -8 0 6 -36 -270 710 -121 327 -223 601 -228 609 -5 9 -16
-9 -33 -55z m162 -1493 c215 -67 359 -292 323 -507 -54 -323 -405 -494 -688
-333 -111 63 -202 196 -225 328 -39 219 114 457 331 515 78 21 186 20 259 -3z"/>
</g>
</svg>
